<svg id="Layer_1" data-name="Layer 1" xmlns="http://www.w3.org/2000/svg" viewBox="0 0 512 512"><defs><style>.cls-1{fill:#ede3e2;}.cls-2{fill:#f7bc52;}.cls-3{fill:#842e20;}</style></defs><title>kitchen-hob-filled</title><path class="cls-1" d="M300.8,499.2H44.8a32,32,0,0,1-32-32V44.8a32,32,0,0,1,32-32H467.2a32,32,0,0,1,32,32V467.2a32,32,0,0,1-32,32H416"/><circle class="cls-2" cx="140.8" cy="166.4" r="57.6"/><circle class="cls-2" cx="320" cy="166.4" r="57.6"/><circle class="cls-2" cx="140.8" cy="345.6" r="57.6"/><circle class="cls-2" cx="320" cy="345.6" r="57.6"/><circle class="cls-3" cx="441.6" cy="230.4" r="12.8"/><circle class="cls-3" cx="441.6" cy="332.8" r="12.8"/><circle class="cls-3" cx="441.6" cy="281.6" r="12.8"/><circle class="cls-3" cx="441.6" cy="179.2" r="12.8"/><path class="cls-3" d="M80.55,124.25l2.27,2.27a70.2,70.2,0,0,0,0,79.75l-2.27,2.27a12.8,12.8,0,1,0,18.1,18.1l2.27-2.27a70.2,70.2,0,0,0,79.75,0l2.27,2.27a12.8,12.8,0,1,0,18.1-18.1l-2.27-2.27a70.2,70.2,0,0,0,0-79.75l2.27-2.27a12.8,12.8,0,0,0-18.1-18.1l-2.27,2.27a70.2,70.2,0,0,0-79.75,0l-2.27-2.27a12.8,12.8,0,0,0-18.1,18.1Zm60.25-2.65a44.52,44.52,0,0,1,21.3,5.4L151,138.15a12.8,12.8,0,1,0,18.1,18.1L180.2,145.1a44.73,44.73,0,0,1,0,42.6L169,176.55a12.8,12.8,0,0,0-18.1,18.1L162.1,205.8a44.73,44.73,0,0,1-42.6,0l11.15-11.15a12.8,12.8,0,0,0-18.1-18.1L101.4,187.7a44.73,44.73,0,0,1,0-42.6l11.15,11.15a12.8,12.8,0,0,0,18.1-18.1L119.5,127A44.52,44.52,0,0,1,140.8,121.6Z"/><path class="cls-3" d="M380.25,124.25a12.8,12.8,0,0,0-18.1-18.1l-2.27,2.27a70.2,70.2,0,0,0-79.75,0l-2.27-2.27a12.8,12.8,0,0,0-18.1,18.1l2.27,2.27a70.2,70.2,0,0,0,0,79.75l-2.27,2.27a12.8,12.8,0,1,0,18.1,18.1l2.27-2.27a70.2,70.2,0,0,0,79.75,0l2.27,2.27a12.8,12.8,0,1,0,18.1-18.1L378,206.28a70.2,70.2,0,0,0,0-79.75ZM364.8,166.4a44.52,44.52,0,0,1-5.4,21.3l-11.15-11.15a12.8,12.8,0,0,0-18.1,18.1L341.3,205.8a44.73,44.73,0,0,1-42.6,0l11.15-11.15a12.8,12.8,0,0,0-18.1-18.1L280.6,187.7a44.73,44.73,0,0,1,0-42.6l11.15,11.15a12.8,12.8,0,0,0,18.1-18.1L298.7,127a44.73,44.73,0,0,1,42.6,0l-11.15,11.15a12.8,12.8,0,1,0,18.1,18.1L359.4,145.1A44.52,44.52,0,0,1,364.8,166.4Z"/><path class="cls-3" d="M198.78,305.72l2.27-2.27a12.8,12.8,0,0,0-18.1-18.1l-2.27,2.27a70.2,70.2,0,0,0-79.75,0l-2.27-2.27a12.8,12.8,0,0,0-18.1,18.1l2.27,2.27a70.2,70.2,0,0,0,0,79.75l-2.27,2.27a12.8,12.8,0,1,0,18.1,18.1l2.27-2.27a70.2,70.2,0,0,0,79.75,0l2.27,2.27a12.8,12.8,0,0,0,18.1-18.1l-2.27-2.27a70.2,70.2,0,0,0,0-79.75Zm-58,84.68a44.52,44.52,0,0,1-21.3-5.4l11.15-11.15a12.8,12.8,0,0,0-18.1-18.1L101.4,366.9a44.73,44.73,0,0,1,0-42.6l11.15,11.15a12.8,12.8,0,0,0,18.1-18.1L119.5,306.2a44.73,44.73,0,0,1,42.6,0L151,317.35a12.8,12.8,0,1,0,18.1,18.1L180.2,324.3a44.73,44.73,0,0,1,0,42.6L169,355.75a12.8,12.8,0,0,0-18.1,18.1L162.1,385A44.52,44.52,0,0,1,140.8,390.4Z"/><path class="cls-3" d="M378,305.72l2.27-2.27a12.8,12.8,0,0,0-18.1-18.1l-2.27,2.27a70.2,70.2,0,0,0-79.75,0l-2.27-2.27a12.8,12.8,0,0,0-18.1,18.1l2.27,2.27a70.2,70.2,0,0,0,0,79.75l-2.27,2.27a12.8,12.8,0,1,0,18.1,18.1l2.27-2.27a70.2,70.2,0,0,0,79.75,0l2.27,2.27a12.8,12.8,0,0,0,18.1-18.1L378,385.48a70.2,70.2,0,0,0,0-79.75ZM320,390.4a44.52,44.52,0,0,1-21.3-5.4l11.15-11.15a12.8,12.8,0,0,0-18.1-18.1L280.6,366.9a44.73,44.73,0,0,1,0-42.6l11.15,11.15a12.8,12.8,0,0,0,18.1-18.1L298.7,306.2a44.73,44.73,0,0,1,42.6,0l-11.15,11.15a12.8,12.8,0,1,0,18.1,18.1L359.4,324.3a44.73,44.73,0,0,1,0,42.6l-11.15-11.15a12.8,12.8,0,0,0-18.1,18.1L341.3,385A44.52,44.52,0,0,1,320,390.4Z"/><path class="cls-3" d="M364.8,486.4H352a12.8,12.8,0,0,0,0,25.6h12.8a12.8,12.8,0,0,0,0-25.6Z"/><path class="cls-3" d="M467.2,0H320a12.8,12.8,0,1,0,0,25.6H467.2a19.22,19.22,0,0,1,19.2,19.2V467.2a19.22,19.22,0,0,1-19.2,19.2H416a12.8,12.8,0,0,0,0,25.6h51.2A44.85,44.85,0,0,0,512,467.2V44.8A44.85,44.85,0,0,0,467.2,0Z"/><path class="cls-3" d="M192,25.6h76.8a12.8,12.8,0,1,0,0-25.6H192a12.8,12.8,0,1,0,0,25.6Z"/><path class="cls-3" d="M300.8,486.4H44.8a19.22,19.22,0,0,1-19.2-19.2V44.8A19.22,19.22,0,0,1,44.8,25.6H70.4A12.8,12.8,0,1,0,70.4,0H44.8A44.85,44.85,0,0,0,0,44.8V467.2A44.85,44.85,0,0,0,44.8,512h256a12.8,12.8,0,0,0,0-25.6Z"/><path class="cls-3" d="M121.6,25.6h19.2a12.8,12.8,0,1,0,0-25.6H121.6a12.8,12.8,0,1,0,0,25.6Z"/></svg>